{"title":"The.King.Is.Dead.2012.BRRip.XViD-UNiQUE","uid":7923234,"size":1558159699,"categoryP":"video","categoryS":"movies","magnet":"?xt=urn:btih:ed2cb30733c31cf821f6fa3d37328ea8812ba2b6&amp;dn=The.King.Is.Dead.2012.BRRip.XViD-UNiQUE&amp;tr=udp%3A%2F%2Ftracker.openbittorrent.com%3A80&amp;tr=udp%3A%2F%2Fopen.demonii.com%3A1337&amp;tr=udp%3A%2F%2Ftracker.coppersurfer.tk%3A6969&amp;tr=udp%3A%2F%2Fexodus.desync.com%3A6969","seeders":1,"leechers":0,"uploader":"haloReD","files":-1,"time":1355518413,"description":"ooooo ooo ooooo ooo o8o .oooooo. ooooo ooo oooooooooooo\n`888' `8' `888b. `8' `&quot;' d8P' `Y8b `888' `8' `888' `8\n888 8 8 `88b. 8 oooo 888 888 888 8 888\n888 8 8 `88b. 8 `888 888 888 888 8 888oooo8\n888 8 8 `88b.8 888 888 888 888 8 888 &quot;\n`88. .8' 8 `888 888 `88b d88b `88. .8' 888 o\n`YbodP' o8o `8 o888o `Y8bood8P'Ybd' `YbodP' o888ooooood8\n\n.........why be the same as everyone else when YOU can be UNiQUE.........\n\nFormat : AVI\nFormat/Info : Audio Video Interleave\nFile size : 1.43 GiB\nDuration : 1h 46mn\nOverall bit rate : 1 932 Kbps\nWriting application : VirtualDubMod 1.5.10.2 (build 2540/release)\nWriting library : VirtualDubMod build 2540/release\n\nVideo\nID : 0\nFormat : MPEG-4 Visual\nFormat profile : Advanced Simple@L5\nFormat settings, BVOP : 2\nFormat settings, QPel : No\nFormat settings, GMC : No warppoints\nFormat settings, Matrix : Default (H.263)\nMuxing mode : Packed bitstream\nCodec ID : XVID\nCodec ID/Hint : XviD\nDuration : 1h 46mn\nBit rate : 1 538 Kbps\nWidth : 720 pixels\nHeight : 384 pixels\nDisplay aspect ratio : 1.85:1\nFrame rate : 23.976 fps\nColor space : YUV\nChroma subsampling : 4:2:0\nBit depth : 8 bits\nScan type : Progressive\nCompression mode : Lossy\nBits/(Pixel*Frame) : 0.232\nStream size : 1.14 GiB (80%)\nWriting library : XviD 64\n\nAudio\nID : 1\nFormat : AC-3\nFormat/Info : Audio Coding 3\nMode extension : CM (complete main)\nFormat settings, Endianness : Big\nCodec ID : 2000\nDuration : 1h 46mn\nBit rate mode : Constant\nBit rate : 384 Kbps\nChannel(s) : 6 channels\nChannel positions : Front: L C R, Side: L R, LFE\nSampling rate : 48.0 KHz\nBit depth : 16 bits\nCompression mode : Lossy\nStream size : 292 MiB (20%)\nAlignment : Split accross interleaves\nInterleave, duration : 42 ms (1.00 video frame)\nInterleave, preload duration : 500 ms\n &lt;a href=&quot;\nhttp://uk.imdb.com/title/tt2072263/&quot; rel=&quot;nofollow&quot; target=&quot;_NEW&quot;&gt;\nhttp://uk.imdb.com/title/tt2072263/&lt;/a&gt;\n\nMax and Therese have just brought a new house in a leafy suburb. Their suburban dreams are quickly shattered when they find they have the neighbours from hell. The unruly neighbours are loud, uncouth and unrelenting in their endeavours to engage in loud music, violent dispositions and drug dealings. Their ringleader is a man named King with two sidekicks Shrek and Escobar, who are equally despicable.\n\nAfter no help from the authoriesties and riven by desperation, Max and Therese plot to make things extremely difficult for King. The plot goes haywire and before they even realise it the couple end up with a corpse on their hands.\n\nClassification:\n\nSource Used .The King Is Dead 2012 720p BluRay x264-PFa...........Thanks\n\nScreens:\n &lt;a href=&quot;\nhttp://www.shotpix.com/images/23373815436412883324.png&quot; rel=&quot;nofollow&quot; target=&quot;_NEW&quot;&gt;\nhttp://www.shotpix.com/images/23373815436412883324.png&lt;/a&gt;\n &lt;a href=&quot;\nhttp://www.shotpix.com/images/52639809518607543222.png&quot; rel=&quot;nofollow&quot; target=&quot;_NEW&quot;&gt;\nhttp://www.shotpix.com/images/52639809518607543222.png&lt;/a&gt;\n &lt;a href=&quot;\nhttp://www.shotpix.com/images/89303581120605390692.png&quot; rel=&quot;nofollow&quot; target=&quot;_NEW&quot;&gt;\nhttp://www.shotpix.com/images/89303581120605390692.png&lt;/a&gt;","torrent":{"xt":"urn:btih:ed2cb30733c31cf821f6fa3d37328ea8812ba2b6","amp;dn":"The.King.Is.Dead.2012.BRRip.XViD-UNiQUE","amp;tr":["udp%3A%2F%2Ftracker.openbittorrent.com%3A80","udp%3A%2F%2Fopen.demonii.com%3A1337","udp%3A%2F%2Ftracker.coppersurfer.tk%3A6969","udp%3A%2F%2Fexodus.desync.com%3A6969"],"infoHash":"ed2cb30733c31cf821f6fa3d37328ea8812ba2b6","infoHashBuffer":{"type":"Buffer","data":[237,44,179,7,51,195,28,248,33,246,250,61,55,50,142,168,129,43,162,182]},"announce":[],"urlList":[]}}